<svg width="32" height="32" viewBox="0 0 32 32" fill="none" xmlns="http://www.w3.org/2000/svg">
<mask id="path-1-outside-1_103_18" maskUnits="userSpaceOnUse" x="0" y="4.90741" width="31" height="21" fill="black">
<rect fill="white" y="4.90741" width="31" height="21"/>
<path d="M2.65678 14.6145C5.32879 10.0926 14.6842 19.8776 14.6842 19.8776L2.65678 19.8777C2.65678 19.8777 1.29745 16.9149 2.65678 14.6145Z"/>
<path d="M11.3464 5.92142C15.4681 5.46159 13.969 16.4754 13.969 16.4754C13.969 16.4754 7.09267 10.9318 8.79207 7.53372C9.21787 6.6823 9.69412 6.10576 11.3464 5.92142Z"/>
<path d="M19.9736 5.92142C15.8519 5.46159 17.351 16.4754 17.351 16.4754C17.351 16.4754 24.2273 10.9318 22.5279 7.53372C22.1021 6.6823 21.6259 6.10576 19.9736 5.92142Z"/>
<path d="M28.8169 14.6145C26.1449 10.0926 16.7895 19.8776 16.7895 19.8776L28.8169 19.8777C28.8169 19.8777 30.1762 16.9149 28.8169 14.6145Z"/>
<path d="M1 22.8948C1 22.3134 1.47128 21.8421 2.05263 21.8421H29.4211C30.0024 21.8421 30.4737 22.3134 30.4737 22.8948V23.9474C30.4737 24.5287 30.0024 25 29.4211 25H2.05263C1.47128 25 1 24.5287 1 23.9474V22.8948Z"/>
</mask>
<path d="M2.65678 14.6145C5.32879 10.0926 14.6842 19.8776 14.6842 19.8776L2.65678 19.8777C2.65678 19.8777 1.29745 16.9149 2.65678 14.6145Z" fill="#FAFAFA"/>
<path d="M11.3464 5.92142C15.4681 5.46159 13.969 16.4754 13.969 16.4754C13.969 16.4754 7.09267 10.9318 8.79207 7.53372C9.21787 6.6823 9.69412 6.10576 11.3464 5.92142Z" fill="#FAFAFA"/>
<path d="M19.9736 5.92142C15.8519 5.46159 17.351 16.4754 17.351 16.4754C17.351 16.4754 24.2273 10.9318 22.5279 7.53372C22.1021 6.6823 21.6259 6.10576 19.9736 5.92142Z" fill="#FAFAFA"/>
<path d="M28.8169 14.6145C26.1449 10.0926 16.7895 19.8776 16.7895 19.8776L28.8169 19.8777C28.8169 19.8777 30.1762 16.9149 28.8169 14.6145Z" fill="#FAFAFA"/>
<path d="M1 22.8948C1 22.3134 1.47128 21.8421 2.05263 21.8421H29.4211C30.0024 21.8421 30.4737 22.3134 30.4737 22.8948V23.9474C30.4737 24.5287 30.0024 25 29.4211 25H2.05263C1.47128 25 1 24.5287 1 23.9474V22.8948Z" fill="#00FFA3"/>
<path d="M14.6842 19.8776L14.6842 20.1776C14.8043 20.1776 14.9129 20.106 14.9601 19.9955C15.0073 19.8851 14.9841 19.7571 14.901 19.6703L14.6842 19.8776ZM2.65678 14.6145L2.3985 14.4619L2.3985 14.4619L2.65678 14.6145ZM2.65678 19.8777L2.38411 20.0028C2.43301 20.1093 2.53952 20.1777 2.65678 20.1777L2.65678 19.8777ZM13.969 16.4754L13.7807 16.7089C13.8649 16.7769 13.9793 16.7941 14.0798 16.7542C14.1804 16.7142 14.2516 16.6231 14.2662 16.5158L13.969 16.4754ZM11.3464 5.92142L11.3132 5.62327L11.3132 5.62327L11.3464 5.92142ZM8.79207 7.53372L9.06039 7.66791L9.06039 7.66791L8.79207 7.53372ZM17.351 16.4754L17.0538 16.5158C17.0684 16.6231 17.1396 16.7142 17.2402 16.7542C17.3407 16.7941 17.4551 16.7769 17.5393 16.7089L17.351 16.4754ZM19.9736 5.92142L19.9403 6.21957L19.9736 5.92142ZM22.5279 7.53372L22.2596 7.66791L22.2596 7.66791L22.5279 7.53372ZM16.7895 19.8776L16.5726 19.6703C16.4896 19.7571 16.4664 19.8851 16.5136 19.9955C16.5608 20.106 16.6694 20.1776 16.7895 20.1776L16.7895 19.8776ZM28.8169 14.6145L29.0752 14.4619L29.0752 14.4619L28.8169 14.6145ZM28.8169 19.8777L28.8169 20.1777C28.9342 20.1777 29.0407 20.1093 29.0896 20.0028L28.8169 19.8777ZM14.6842 19.8776C14.901 19.6703 14.901 19.6702 14.9009 19.6701C14.9008 19.67 14.9006 19.6699 14.9005 19.6697C14.9001 19.6694 14.8997 19.6689 14.899 19.6682C14.8978 19.6669 14.896 19.6651 14.8936 19.6626C14.8889 19.6577 14.882 19.6505 14.8729 19.6411C14.8547 19.6223 14.8278 19.5946 14.7927 19.5588C14.7226 19.4873 14.6198 19.3834 14.4882 19.2529C14.225 18.9921 13.8465 18.625 13.384 18.1988C12.46 17.3473 11.1964 16.2559 9.84515 15.305C8.50043 14.3587 7.0411 13.5313 5.72908 13.2365C5.06996 13.0884 4.42738 13.07 3.84854 13.2569C3.26224 13.4462 2.76699 13.8383 2.3985 14.4619L2.91506 14.7671C3.21456 14.2603 3.59617 13.9689 4.03294 13.8279C4.47716 13.6844 5.00386 13.6885 5.59756 13.8219C6.79118 14.0901 8.1717 14.861 9.49984 15.7957C10.8215 16.7258 12.0637 17.7981 12.9774 18.64C13.4337 19.0605 13.8069 19.4225 14.0658 19.6791C14.1952 19.8074 14.296 19.9092 14.3643 19.9789C14.3984 20.0137 14.4244 20.0404 14.4417 20.0583C14.4504 20.0673 14.4569 20.0741 14.4612 20.0785C14.4633 20.0808 14.4649 20.0824 14.466 20.0835C14.4665 20.084 14.4669 20.0844 14.4671 20.0847C14.4672 20.0848 14.4673 20.0849 14.4673 20.0849C14.4674 20.085 14.4674 20.085 14.6842 19.8776ZM2.3985 14.4619C1.66769 15.6986 1.67574 17.0968 1.85104 18.1576C1.93925 18.6914 2.07137 19.1498 2.18146 19.475C2.23659 19.6378 2.28641 19.7679 2.32283 19.8582C2.34105 19.9033 2.35593 19.9385 2.36648 19.9629C2.37175 19.9751 2.37594 19.9846 2.37892 19.9913C2.38041 19.9946 2.38159 19.9972 2.38246 19.9992C2.3829 20.0001 2.38326 20.0009 2.38353 20.0015C2.38367 20.0018 2.38378 20.0021 2.38388 20.0023C2.38393 20.0024 2.38399 20.0025 2.38401 20.0026C2.38406 20.0027 2.38411 20.0028 2.65678 19.8777C2.92945 19.7526 2.92948 19.7526 2.92952 19.7527C2.92952 19.7527 2.92954 19.7528 2.92955 19.7528C2.92957 19.7528 2.92956 19.7528 2.92953 19.7527C2.92948 19.7526 2.92934 19.7523 2.92913 19.7519C2.9287 19.7509 2.92796 19.7493 2.92692 19.7469C2.92484 19.7423 2.92156 19.7349 2.91721 19.7248C2.90851 19.7046 2.89551 19.674 2.87922 19.6336C2.84661 19.5528 2.80085 19.4335 2.74978 19.2826C2.64748 18.9804 2.52472 18.5543 2.44302 18.0598C2.27848 17.0642 2.28653 15.8308 2.91506 14.7671L2.3985 14.4619ZM2.65678 20.1777L14.6842 20.1776L14.6842 19.5776L2.65678 19.5777L2.65678 20.1777ZM13.969 16.4754C14.2662 16.5158 14.2662 16.5158 14.2663 16.5156C14.2663 16.5155 14.2663 16.5153 14.2663 16.5151C14.2664 16.5147 14.2665 16.5142 14.2666 16.5134C14.2668 16.5119 14.267 16.5098 14.2674 16.507C14.2682 16.5014 14.2692 16.4932 14.2706 16.4825C14.2734 16.4611 14.2775 16.4296 14.2825 16.3887C14.2927 16.3068 14.3069 16.1874 14.3235 16.0358C14.3568 15.7326 14.3996 15.3006 14.438 14.7839C14.5146 13.7517 14.574 12.3756 14.5029 11.0104C14.4322 9.65257 14.2311 8.27299 13.7682 7.25255C13.5357 6.74002 13.2283 6.29811 12.819 6.0003C12.4025 5.69731 11.8997 5.55783 11.3132 5.62327L11.3797 6.21957C11.8236 6.17004 12.1755 6.27417 12.466 6.48548C12.7636 6.70197 13.0153 7.04506 13.2218 7.50042C13.637 8.41574 13.834 9.70339 13.9037 11.0416C13.973 12.3723 13.9153 13.7209 13.8396 14.7394C13.8019 15.2481 13.7597 15.673 13.7271 15.9703C13.7108 16.119 13.6969 16.2357 13.6871 16.3149C13.6822 16.3546 13.6783 16.3849 13.6757 16.4051C13.6743 16.4152 13.6733 16.4228 13.6727 16.4278C13.6723 16.4303 13.6721 16.4322 13.6719 16.4333C13.6718 16.4339 13.6718 16.4344 13.6717 16.4346C13.6717 16.4348 13.6717 16.4348 13.6717 16.4349C13.6717 16.4349 13.6717 16.4349 13.969 16.4754ZM11.3132 5.62327C10.4584 5.71863 9.86975 5.91925 9.43366 6.23421C8.99585 6.55042 8.74385 6.95945 8.52376 7.39954L9.06039 7.66791C9.2661 7.25658 9.46511 6.95163 9.78496 6.72062C10.1065 6.48837 10.5822 6.30855 11.3797 6.21957L11.3132 5.62327ZM8.52376 7.39954C8.04411 8.35863 8.18467 9.44107 8.60613 10.4774C9.02846 11.516 9.7505 12.5548 10.5126 13.4707C11.2769 14.3892 12.0933 15.198 12.7172 15.7761C13.0295 16.0656 13.2944 16.298 13.4817 16.4584C13.5753 16.5386 13.6495 16.6008 13.7006 16.6432C13.7262 16.6644 13.7459 16.6806 13.7594 16.6917C13.7662 16.6972 13.7714 16.7014 13.7749 16.7043C13.7767 16.7057 13.7781 16.7068 13.779 16.7076C13.7795 16.708 13.7799 16.7083 13.7802 16.7085C13.7803 16.7086 13.7804 16.7087 13.7805 16.7088C13.7806 16.7089 13.7807 16.7089 13.969 16.4754C14.1573 16.2418 14.1573 16.2418 14.1573 16.2418C14.1572 16.2418 14.1572 16.2418 14.1571 16.2417C14.157 16.2416 14.1567 16.2414 14.1564 16.2411C14.1557 16.2406 14.1546 16.2397 14.1531 16.2384C14.15 16.236 14.1454 16.2322 14.1392 16.2271C14.1267 16.217 14.1081 16.2016 14.0837 16.1814C14.0349 16.1409 13.9631 16.0807 13.872 16.0027C13.6898 15.8467 13.4308 15.6194 13.125 15.3361C12.5127 14.7687 11.7162 13.9791 10.9738 13.087C10.2293 12.1922 9.55094 11.208 9.16193 10.2514C8.77203 9.29265 8.69034 8.40786 9.06039 7.66791L8.52376 7.39954ZM17.351 16.4754C17.6483 16.4349 17.6483 16.4349 17.6483 16.4349C17.6483 16.4348 17.6483 16.4348 17.6483 16.4346C17.6482 16.4344 17.6482 16.4339 17.6481 16.4333C17.6479 16.4322 17.6477 16.4303 17.6473 16.4278C17.6467 16.4228 17.6457 16.4152 17.6444 16.4051C17.6417 16.3849 17.6378 16.3546 17.6329 16.3149C17.6231 16.2357 17.6092 16.119 17.5929 15.9703C17.5603 15.673 17.5181 15.2481 17.4804 14.7394C17.4047 13.7209 17.347 12.3723 17.4163 11.0416C17.486 9.70339 17.683 8.41574 18.0982 7.50042C18.3048 7.04506 18.5564 6.70197 18.854 6.48548C19.1445 6.27417 19.4964 6.17004 19.9403 6.21957L20.0068 5.62327C19.4203 5.55783 18.9175 5.69731 18.501 6.0003C18.0917 6.29811 17.7843 6.74002 17.5518 7.25255C17.0889 8.27299 16.8878 9.65257 16.8171 11.0104C16.746 12.3756 16.8054 13.7517 16.882 14.7839C16.9204 15.3006 16.9632 15.7326 16.9965 16.0358C17.0131 16.1874 17.0273 16.3068 17.0375 16.3887C17.0425 16.4296 17.0466 16.4611 17.0494 16.4825C17.0508 16.4932 17.0518 16.5014 17.0526 16.507C17.053 16.5098 17.0532 16.5119 17.0534 16.5134C17.0535 16.5142 17.0536 16.5147 17.0537 16.5151C17.0537 16.5153 17.0537 16.5155 17.0537 16.5156C17.0538 16.5158 17.0538 16.5158 17.351 16.4754ZM19.9403 6.21957C20.7378 6.30855 21.2135 6.48837 21.535 6.72062C21.8549 6.95163 22.0539 7.25658 22.2596 7.66791L22.7962 7.39954C22.5762 6.95945 22.3242 6.55042 21.8863 6.23421C21.4503 5.91925 20.8616 5.71863 20.0068 5.62327L19.9403 6.21957ZM22.2596 7.66791C22.6297 8.40786 22.548 9.29265 22.1581 10.2514C21.7691 11.208 21.0907 12.1922 20.3462 13.087C19.6038 13.9791 18.8073 14.7687 18.195 15.3361C17.8892 15.6194 17.6302 15.8467 17.448 16.0027C17.3569 16.0807 17.2851 16.1409 17.2363 16.1814C17.2119 16.2016 17.1933 16.217 17.1808 16.2271C17.1746 16.2322 17.17 16.236 17.1669 16.2384C17.1654 16.2397 17.1643 16.2406 17.1636 16.2411C17.1633 16.2414 17.163 16.2416 17.1629 16.2417C17.1628 16.2418 17.1628 16.2418 17.1627 16.2418C17.1627 16.2418 17.1627 16.2418 17.351 16.4754C17.5393 16.7089 17.5394 16.7089 17.5395 16.7088C17.5396 16.7087 17.5397 16.7086 17.5398 16.7085C17.5401 16.7083 17.5405 16.708 17.541 16.7076C17.5419 16.7068 17.5433 16.7057 17.5451 16.7043C17.5486 16.7014 17.5538 16.6972 17.5606 16.6917C17.5741 16.6806 17.5938 16.6644 17.6194 16.6432C17.6705 16.6008 17.7447 16.5386 17.8383 16.4584C18.0256 16.298 18.2905 16.0656 18.6028 15.7761C19.2267 15.198 20.0431 14.3892 20.8074 13.4707C21.5695 12.5548 22.2915 11.516 22.7139 10.4774C23.1353 9.44107 23.2759 8.35863 22.7962 7.39954L22.2596 7.66791ZM16.7895 19.8776C17.0063 20.085 17.0063 20.085 17.0063 20.0849C17.0064 20.0849 17.0065 20.0848 17.0066 20.0847C17.0068 20.0844 17.0072 20.084 17.0077 20.0835C17.0087 20.0824 17.0103 20.0808 17.0125 20.0785C17.0168 20.0741 17.0233 20.0673 17.032 20.0583C17.0493 20.0404 17.0753 20.0137 17.1094 19.9789C17.1777 19.9092 17.2785 19.8074 17.4079 19.6791C17.6668 19.4225 18.04 19.0605 18.4963 18.64C19.4099 17.7981 20.6522 16.7258 21.9738 15.7957C23.302 14.861 24.6825 14.0901 25.8761 13.8219C26.4698 13.6885 26.9965 13.6844 27.4408 13.8279C27.8775 13.9689 28.2591 14.2603 28.5586 14.7671L29.0752 14.4619C28.7067 13.8383 28.2114 13.4462 27.6251 13.2569C27.0463 13.07 26.4037 13.0884 25.7446 13.2365C24.4326 13.5313 22.9733 14.3587 21.6285 15.305C20.2773 16.2559 19.0137 17.3473 18.0897 18.1988C17.6272 18.625 17.2487 18.9921 16.9855 19.2529C16.8539 19.3834 16.7511 19.4873 16.681 19.5588C16.6459 19.5946 16.619 19.6223 16.6008 19.6411C16.5917 19.6505 16.5848 19.6577 16.58 19.6626C16.5777 19.6651 16.5759 19.6669 16.5746 19.6682C16.574 19.6689 16.5736 19.6694 16.5732 19.6697C16.573 19.6699 16.5729 19.67 16.5728 19.6701C16.5727 19.6702 16.5726 19.6703 16.7895 19.8776ZM28.5586 14.7671C29.1872 15.8308 29.1952 17.0642 29.0307 18.0598C28.949 18.5543 28.8262 18.9804 28.7239 19.2826C28.6728 19.4335 28.6271 19.5528 28.5945 19.6336C28.5782 19.674 28.5652 19.7046 28.5565 19.7248C28.5521 19.7349 28.5488 19.7423 28.5468 19.7469C28.5457 19.7493 28.545 19.7509 28.5446 19.7519C28.5443 19.7523 28.5442 19.7526 28.5442 19.7527C28.5441 19.7528 28.5441 19.7528 28.5441 19.7528C28.5441 19.7528 28.5442 19.7527 28.5442 19.7527C28.5442 19.7526 28.5442 19.7526 28.8169 19.8777C29.0896 20.0028 29.0896 20.0027 29.0897 20.0026C29.0897 20.0025 29.0898 20.0024 29.0898 20.0023C29.0899 20.0021 29.09 20.0018 29.0902 20.0015C29.0904 20.0009 29.0908 20.0001 29.0912 19.9992C29.0921 19.9972 29.0933 19.9946 29.0948 19.9913C29.0977 19.9846 29.1019 19.9751 29.1072 19.9629C29.1178 19.9385 29.1326 19.9033 29.1509 19.8582C29.1873 19.7679 29.2371 19.6378 29.2922 19.475C29.4023 19.1498 29.5344 18.6914 29.6226 18.1576C29.7979 17.0968 29.806 15.6986 29.0752 14.4619L28.5586 14.7671ZM28.8169 19.5777L16.7895 19.5776L16.7895 20.1776L28.8169 20.1777L28.8169 19.5777ZM2.05263 22.1421H29.4211V21.5421H2.05263V22.1421ZM30.1737 22.8948V23.9474H30.7737V22.8948H30.1737ZM29.4211 24.7H2.05263V25.3H29.4211V24.7ZM1.3 23.9474V22.8948H0.7V23.9474H1.3ZM2.05263 24.7C1.63696 24.7 1.3 24.3631 1.3 23.9474H0.7C0.7 24.6944 1.30559 25.3 2.05263 25.3V24.7ZM30.1737 23.9474C30.1737 24.3631 29.8367 24.7 29.4211 24.7V25.3C30.1681 25.3 30.7737 24.6944 30.7737 23.9474H30.1737ZM29.4211 22.1421C29.8367 22.1421 30.1737 22.4791 30.1737 22.8948H30.7737C30.7737 22.1477 30.1681 21.5421 29.4211 21.5421V22.1421ZM2.05263 21.5421C1.30559 21.5421 0.7 22.1477 0.7 22.8948H1.3C1.3 22.4791 1.63696 22.1421 2.05263 22.1421V21.5421Z" fill="black" mask="url(#path-1-outside-1_103_18)"/>
</svg>
